<svg version="1.1" xmlns="http://www.w3.org/2000/svg" xmlns:xlink="http://www.w3.org/1999/xlink" width="1225.000000pt" height="1280.000000pt" viewBox="0,0,245,256"><g fill="#ffffff" fill-rule="nonzero" stroke="none" stroke-width="1" stroke-linecap="butt" stroke-linejoin="miter" stroke-miterlimit="10" stroke-dasharray="" stroke-dashoffset="0" font-family="none" font-weight="none" font-size="none" text-anchor="none" style="mix-blend-mode: normal"><g transform="translate(-0.01097,-0.01168) scale(0.2,0.2)"><g transform="translate(0,1280) scale(0.1,-0.1)"><path d="M4565,12782c-22,-11 -61,-41 -86,-69c-137,-147 -198,-415 -315,-1388c-31,-259 -60,-473 -63,-477c-4,-5 -117,40 -251,98c-1045,451 -1253,534 -1729,690c-139,46 -351,94 -415,94c-48,0 -108,-25 -125,-52c-21,-33 -16,-143 9,-234c91,-325 442,-1098 703,-1549c118,-203 317,-482 317,-444c0,6 -42,81 -94,167c-283,474 -422,795 -510,1183c-70,310 -84,516 -39,577c27,37 86,41 167,11c167,-60 828,-374 1191,-566c371,-196 705,-402 705,-435c0,-9 -15,-77 -34,-150c-79,-307 -184,-470 -431,-673c-136,-111 -216,-168 -681,-482c-752,-508 -1010,-703 -1293,-978c-273,-266 -469,-544 -585,-832c-123,-308 -158,-523 -176,-1093c-11,-336 -26,-495 -65,-676c-88,-405 -283,-889 -501,-1239c-178,-286 -198,-322 -227,-395c-62,-157 -45,-298 63,-516c104,-213 280,-455 464,-640c172,-172 293,-250 554,-358c151,-62 203,-96 377,-246c285,-245 507,-355 835,-417c137,-26 608,-26 800,0c345,47 700,128 990,228c96,33 182,62 191,65c34,12 478,-613 987,-1387c338,-514 405,-610 418,-597c11,11 -38,128 -142,338c-290,587 -660,1181 -1027,1647l-57,72l152,78c194,100 311,173 467,290c68,51 126,93 131,93c11,0 334,-239 520,-385c504,-396 732,-599 1959,-1743c377,-352 483,-432 389,-294c-134,197 -581,695 -994,1107c-540,540 -975,904 -1576,1321c-82,56 -154,104 -160,107c-8,2 25,43 78,99c92,95 152,173 141,184c-11,11 -48,-8 -197,-106l-152,-99l-116,71c-368,222 -935,517 -1047,544l-30,7l20,-22c29,-33 112,-90 400,-276c335,-215 625,-408 625,-416c0,-11 -351,-205 -547,-303c-106,-53 -194,-96 -196,-96c-2,0 -70,72 -152,161c-203,221 -487,479 -526,479c-33,0 4,-53 301,-429c118,-150 214,-276 213,-279c-3,-10 -289,-120 -448,-171c-481,-156 -905,-181 -1330,-77c-531,130 -1318,542 -1635,856c-114,113 -145,192 -120,310c15,72 95,240 212,445c233,410 279,535 232,626c-35,69 -120,81 -362,53c-166,-19 -249,-16 -269,12c-39,51 7,158 210,486c255,414 368,632 435,838c48,150 57,203 57,370c0,170 -8,224 -66,470c-51,218 -69,327 -69,414c0,310 175,637 600,1127c132,151 453,469 613,605c533,456 1162,799 1708,933c182,44 336,69 634,101c438,47 605,76 785,138c206,71 294,119 397,215c84,78 136,158 170,261c24,74 27,95 27,241c1,188 -18,297 -91,515c-81,244 -193,458 -425,807c-157,238 -183,281 -173,291c25,25 337,-192 1548,-1081c1745,-1279 2322,-1739 2916,-2322c430,-423 733,-774 1158,-1345c173,-233 285,-389 758,-1060c323,-459 521,-721 566,-748c21,-14 22,-13 15,20c-9,49 -158,345 -284,563c-809,1408 -1981,2818 -3237,3894c-603,517 -1053,851 -2645,1963c-272,191 -612,430 -755,532c-393,281 -528,355 -655,363c-49,3 -75,-1 -105,-15z"></path><path d="M2625,6810c-147,-13 -364,-48 -470,-75c-151,-38 -214,-81 -200,-137c4,-14 37,-63 74,-109c86,-108 140,-186 232,-333c90,-147 162,-226 236,-262c158,-77 424,-13 694,168c162,108 254,213 353,405c67,127 110,165 248,217l59,22l-38,12c-54,16 -315,59 -468,77c-156,19 -580,27 -720,15z"></path><path d="M4125,3745c27,-23 140,-75 320,-147c442,-176 832,-371 1217,-604c299,-182 513,-328 1188,-809c431,-307 499,-354 548,-379c62,-32 34,8 -95,136c-158,155 -224,214 -431,386c-671,559 -1214,903 -1827,1157c-300,125 -733,258 -879,271c-58,5 -60,5 -41,-11z"></path></g></g></g></svg>